<svg width="18" height="18" viewBox="0 0 18 18" fill="none" xmlns="http://www.w3.org/2000/svg">
<path d="M14.7798 2.55322C14.9341 2.39893 15.1841 2.39893 15.3384 2.55322L15.4468 2.66162C15.6009 2.81594 15.601 3.06599 15.4468 3.22022L9.79932 8.8667V8.86768C9.76444 8.90274 9.7447 8.95004 9.74464 8.99951C9.74464 9.04918 9.76424 9.09717 9.79932 9.13232L15.4468 14.7798C15.6018 14.935 15.6009 15.1854 15.4468 15.3345C15.3957 15.3839 15.3672 15.4098 15.3511 15.4243C15.1703 15.5868 14.9199 15.5867 14.769 15.436L9.13233 9.79932C9.05916 9.72627 8.94088 9.72631 8.86768 9.79932L3.22022 15.4468C3.06498 15.6018 2.81458 15.5999 2.66553 15.4458C2.61656 15.3952 2.59025 15.3673 2.57569 15.3511C2.41319 15.1703 2.41324 14.9199 2.56397 14.769L8.20069 9.13232C8.23575 9.09718 8.25538 9.04916 8.25538 8.99951C8.25531 8.94988 8.23579 8.9018 8.20069 8.8667L2.55323 3.22022C2.39899 3.06598 2.3991 2.81593 2.55323 2.66162L2.66163 2.55322C2.81592 2.39893 3.06592 2.39893 3.22022 2.55322L8.86768 8.19971C8.90274 8.23476 8.94995 8.25526 8.99952 8.25537C9.04925 8.25537 9.09717 8.23487 9.13233 8.19971L14.7798 2.55322Z" fill="#E7E7E7"/>
</svg>
