<svg width="21" height="21" viewBox="0 0 21 21" fill="none" xmlns="http://www.w3.org/2000/svg">
<rect x="2.5" y="2.5" width="16" height="16" rx="2.25" stroke="#909090" stroke-width="1.5"/>
<path d="M10.5 10.8625L8.30387 13.0586C8.21539 13.147 8.07123 13.1476 7.98423 13.0576C7.96474 13.0375 7.95381 13.0258 7.94728 13.0185C7.86212 12.9237 7.85544 12.782 7.94552 12.6919L10.1375 10.5L7.94136 8.30387C7.85288 8.21539 7.85288 8.07193 7.94136 7.98345L7.98345 7.94136C8.07193 7.85288 8.21539 7.85288 8.30387 7.94136L10.5 10.1375L12.6961 7.94136C12.7845 7.85288 12.928 7.85288 13.0165 7.94136L13.0586 7.98345C13.1471 8.07193 13.1471 8.21539 13.0586 8.30387L10.8625 10.5L13.0586 12.6961C13.1471 12.7845 13.1476 12.9287 13.0576 13.0157C13.0375 13.0352 13.0258 13.0461 13.0185 13.0526C12.9237 13.1378 12.782 13.1445 12.6919 13.0544L10.5 10.8625Z" fill="#838382" stroke="#838382" stroke-linecap="round" stroke-linejoin="round"/>
</svg>
