<svg width="132" height="17" viewBox="0 0 132 17" fill="none" xmlns="http://www.w3.org/2000/svg">
<path d="M15.5869 8.5C15.5869 12.9186 12.098 16.5 7.79344 16.5C3.4889 16.5 0 12.9186 0 8.5C0 4.08137 3.4889 0.5 7.79344 0.5C12.098 0.5 15.5869 4.08137 15.5869 8.5ZM23.9109 2.94779H20.6594V13.7662H23.9109V9.68532H27.1616V13.7653H30.4131V2.94685H27.1616V6.68721H23.9109V2.94779ZM32.0279 12.1736C33.2623 13.5179 34.527 13.9976 35.8971 13.9976C38.8178 13.9976 39.902 12.2817 39.902 10.4897C39.902 6.31656 35.5058 7.0588 35.5058 5.88382C35.5058 5.40499 35.7615 5.28081 36.2279 5.28081C36.9803 5.28081 37.4624 5.55927 38.2148 6.20837L39.8561 4.27611C38.6364 3.21025 37.763 2.71543 36.2426 2.71543C33.7288 2.71543 32.4339 4.2921 32.4339 5.992C32.4339 10.2262 36.8154 9.36077 36.8154 10.4897C36.8154 10.9995 36.4085 11.293 35.8971 11.293C35.4004 11.293 34.4216 11.0616 33.6692 10.2422L32.0279 12.1736ZM48.1839 10.8603H44.8847V9.68532H47.9878V6.93462H44.8847V5.85278H48.1839V2.94779H41.6331V13.7662H48.1839V10.8603ZM60.6264 3.11806H59.49V9.4285C59.49 11.4022 58.0769 12.6731 56.2999 12.6731C54.5229 12.6731 53.1098 11.4022 53.1098 9.4285V3.11806H51.9734V9.4285C51.9734 12.0155 53.765 13.8104 56.2999 13.8104C58.8348 13.8104 60.6264 12.0155 60.6264 9.4285V3.11806ZM64.2381 3.11806H63.1017V13.5856H64.2381V5.15193L70.4736 13.5856H71.61V3.11806H70.4736V11.5668L64.2381 3.11806ZM75.5947 3.11806H74.4583V13.5856H75.5947V3.11806ZM77.2846 3.11806L81.5534 13.5856H81.9173L86.1861 3.11806H84.9186L81.7285 11.1181L78.553 3.11806H77.2846ZM92.7469 12.4501H88.8282V8.71167H92.383V7.57526H88.8282V4.25541H92.7469V3.11806H87.6918V13.5856H92.7469V12.4501ZM97.2897 9.60818C98.12 9.60818 98.8632 13.6759 101.223 13.6759C101.441 13.6759 101.66 13.6458 101.864 13.5865V12.42C101.747 12.4652 101.616 12.4802 101.485 12.4802C100.057 12.4802 99.4021 9.78881 98.5571 9.4445C100.043 9.20555 101.164 7.93368 101.164 6.37865C101.164 4.52446 99.6789 3.119 97.901 3.119H94.9729V13.5865H96.1093V9.60818H97.2897ZM96.1102 8.47178V4.25541H97.8001C98.9805 4.25541 100.044 5.10771 100.044 6.37865C100.044 7.64958 98.9805 8.47178 97.8001 8.47178H96.1102ZM104.38 5.70602C104.38 4.65898 105.211 3.98636 106.463 3.98636C107.629 3.98636 108.314 4.50941 109.246 5.46707L109.96 4.5254C108.882 3.47836 107.993 2.89511 106.478 2.89511C104.57 2.89511 103.288 4.01646 103.288 5.70696C103.288 9.83396 108.955 7.92051 108.955 10.6722C108.955 11.7342 108.051 12.706 106.522 12.706C105.386 12.706 104.57 12.1529 103.652 11.2404L102.952 12.1228C104.03 13.2291 105.065 13.8123 106.522 13.8123C108.693 13.8123 110.105 12.3617 110.105 10.6571C110.105 6.61759 104.38 8.51693 104.38 5.70602ZM113.377 3.11806H112.241V13.5856H113.377V3.11806ZM119.574 13.5865V4.25541H123.056V3.11806H114.956V4.25447H118.438V13.5856H119.574V13.5865ZM127.397 10.0268V13.5856H128.533V10.0268L132 3.11806H130.718L127.965 8.62136L125.212 3.11806H123.93L127.397 10.0268Z" fill="#102D69"/>
<path d="M9.0992 7.93047C9.60315 7.71785 9.90991 7.39189 10.1117 7.14461C10.4969 6.69127 10.654 6.13583 10.654 5.60943C10.654 5.18513 10.5398 4.33651 9.81313 3.75297C9.31375 3.3577 8.87187 3.16756 7.81741 3.16756H7.28333C7.26598 3.16663 7.25046 3.16663 7.23038 3.16663H5.02832V13.8333H11.314V11.7858C11.3131 9.82627 10.6978 8.50933 9.0992 7.93047ZM9.88982 13.2451H8.75593V9.6839H7.44766V13.2488H6.44523V3.69771L7.47505 3.69865C7.86032 3.69865 8.44461 3.78669 8.85818 4.3131C9.07364 4.58004 9.2051 4.9341 9.25166 5.29003H7.44766V5.8155H9.26627C9.25258 6.15457 9.1841 6.53485 8.86 6.93855C8.57516 7.30385 8.1059 7.64385 7.44583 7.64385C7.44218 7.64385 7.43853 7.64385 7.43396 7.64385V8.17681C9.20145 8.17681 9.88891 9.38136 9.88891 11.5872V13.2451H9.88982Z" fill="#FEFEFE"/>
<path d="M9.10011 7.93047C9.60407 7.71785 9.91082 7.39189 10.1126 7.14461C10.4979 6.69127 10.6549 6.13583 10.6549 5.60943C10.6549 5.18513 10.5408 4.33651 9.81405 3.75297C9.31466 3.3577 8.87279 3.16756 7.81832 3.16756H7.28424C7.26689 3.16663 7.25137 3.16663 7.23129 3.16663H5.02832V13.8333H11.314V11.7858C11.314 9.82627 10.6987 8.50933 9.10011 7.93047ZM9.89073 13.2451H8.75684V9.6839H7.44857V13.2488H6.44614V3.69771L7.47596 3.69865C7.86123 3.69865 8.44552 3.78669 8.85909 4.3131C9.07455 4.58004 9.20602 4.9341 9.25258 5.29003H7.44857V5.8155H9.26718C9.25349 6.15457 9.18502 6.53485 8.86092 6.93855C8.57608 7.30385 8.10681 7.64385 7.44675 7.64385C7.44309 7.64385 7.43944 7.64385 7.43488 7.64385V8.17681C9.20236 8.17681 9.88982 9.38136 9.88982 11.5872V13.2451H9.89073Z" fill="#FEFEFE"/>
</svg>
