<svg width="17" height="16" viewBox="0 0 17 16" fill="none" xmlns="http://www.w3.org/2000/svg">
<path d="M9.07286 8.57286L15.9975 8.57286C16.2765 8.57286 16.5046 8.34637 16.4999 8.06742C16.4989 8.00492 16.4977 7.96924 16.4965 7.94749C16.4814 7.66383 16.2684 7.42981 15.9844 7.42981L9.07286 7.42981L9.07286 0.505161C9.07286 0.226168 8.84669 2.7608e-07 8.5677 8.90009e-08L8.43497 0C8.15598 -1.87079e-07 7.92981 0.226168 7.92981 0.505161L7.92981 7.42981L1.00516 7.42981C0.726167 7.42981 0.499998 7.65598 0.5 7.93497V8.0677C0.5 8.34669 0.726167 8.57286 1.00516 8.57286L7.92981 8.57286L7.92981 15.4975C7.92981 15.7765 8.1563 16.0046 8.43526 15.9999C8.49776 15.9989 8.53344 15.9977 8.55518 15.9965C8.83884 15.9814 9.07286 15.7684 9.07286 15.4844L9.07286 8.57286Z" fill="currentColor"/>
</svg>
